<svg width="60" height="66" viewBox="0 0 60 66" fill="none" xmlns="http://www.w3.org/2000/svg">
<path d="M16.43 62.73C17.67 63.93 16.79 66 15.03 66H3.95C2.91734 66.0133 1.92154 65.6166 1.18104 64.8967C0.440538 64.1768 0.015802 63.1926 0 62.16V51.44C0 49.72 2.13 48.87 3.38 50.08L16.43 62.73Z" fill="#0A1551"/>
<path d="M33.7199 63.56C32.9429 62.7885 32.3262 61.8709 31.9053 60.86C31.4845 59.8492 31.2678 58.765 31.2678 57.67C31.2678 56.575 31.4845 55.4909 31.9053 54.48C32.3262 53.4691 32.9429 52.5515 33.7199 51.78L45.5399 40.04C47.117 38.4755 49.2485 37.5976 51.4699 37.5976C53.6914 37.5976 55.8228 38.4755 57.3999 40.04C58.177 40.8115 58.7937 41.7291 59.2145 42.74C59.6354 43.7509 59.852 44.835 59.852 45.93C59.852 47.025 59.6354 48.1092 59.2145 49.12C58.7937 50.1309 58.177 51.0485 57.3999 51.82L45.5799 63.56C44.0028 65.1245 41.8714 66.0024 39.6499 66.0024C37.4285 66.0024 35.297 65.1245 33.7199 63.56Z" fill="#FFB629"/>
<path d="M2.49995 34.05C1.72291 33.2785 1.10621 32.3609 0.68536 31.35C0.264515 30.3391 0.0478516 29.255 0.0478516 28.16C0.0478516 27.065 0.264515 25.9808 0.68536 24.97C1.10621 23.9591 1.72291 23.0415 2.49995 22.27L22.39 2.49997C23.967 0.935449 26.0985 0.0575562 28.32 0.0575562C30.5414 0.0575562 32.6729 0.935449 34.25 2.49997C35.027 3.27146 35.6437 4.18907 36.0645 5.19995C36.4854 6.21083 36.7021 7.29499 36.7021 8.38997C36.7021 9.48496 36.4854 10.5691 36.0645 11.58C35.6437 12.5909 35.027 13.5085 34.25 14.28L14.35 34.05C12.7733 35.6115 10.644 36.4874 8.42495 36.4874C6.20593 36.4874 4.07661 35.6115 2.49995 34.05Z" fill="#0099FF"/>
<path d="M18.76 48.15C17.9829 47.3785 17.3662 46.4609 16.9454 45.45C16.5245 44.4392 16.3079 43.355 16.3079 42.26C16.3079 41.165 16.5245 40.0809 16.9454 39.07C17.3662 38.0591 17.9829 37.1415 18.76 36.37L45.63 9.67002C47.207 8.10549 49.3385 7.2276 51.56 7.2276C53.7814 7.2276 55.9129 8.10549 57.49 9.67002C58.267 10.4415 58.8837 11.3591 59.3046 12.37C59.7254 13.3809 59.9421 14.465 59.9421 15.56C59.9421 16.655 59.7254 17.7392 59.3046 18.75C58.8837 19.7609 58.267 20.6785 57.49 21.45L30.62 48.15C29.0429 49.7145 26.9114 50.5924 24.69 50.5924C22.4685 50.5924 20.337 49.7145 18.76 48.15Z" fill="#FF6100"/>
</svg>
